PathFileType	4	(X/Y/Z)	outputs\dynamic_markers.trc
DataRate	CameraRate	NumFrames	NumMarkers	Units	OrigDataRate	OrigDataStartFrame	OrigNumFrames
360.000000	360.000000	4	45	m	360.000000	321	643
Frame#	Time	C7			CLAV			LANK			LASI			LBHD			LELB			LFHD			LFIN			LFRM			LHEE			LKNE			LMANK			LMELB			LMKNE			LPSI			LSHO			LTHI			LTIB			LTOE			LUPA			LWRA			LWRB			RANK			RASI			RBAK			RBHD			RELB			RFHD			RFIN			RFRM			RHEE			RKNE			RMANK			RMELB			RMKNE			RPSI			RSHO			RTHI			RTIB			RTOE			RUPA			RWRA			RWRB			STRN			T10			
		X1	Y1	Z1	X2	Y2	Z2	X3	Y3	Z3	X4	Y4	Z4	X5	Y5	Z5	X6	Y6	Z6	X7	Y7	Z7	X8	Y8	Z8	X9	Y9	Z9	X10	Y10	Z10	X11	Y11	Z11	X12	Y12	Z12	X13	Y13	Z13	X14	Y14	Z14	X15	Y15	Z15	X16	Y16	Z16	X17	Y17	Z17	X18	Y18	Z18	X19	Y19	Z19	X20	Y20	Z20	X21	Y21	Z21	X22	Y22	Z22	X23	Y23	Z23	X24	Y24	Z24	X25	Y25	Z25	X26	Y26	Z26	X27	Y27	Z27	X28	Y28	Z28	X29	Y29	Z29	X30	Y30	Z30	X31	Y31	Z31	X32	Y32	Z32	X33	Y33	Z33	X34	Y34	Z34	X35	Y35	Z35	X36	Y36	Z36	X37	Y37	Z37	X38	Y38	Z38	X39	Y39	Z39	X40	Y40	Z40	X41	Y41	Z41	X42	Y42	Z42	X43	Y43	Z43	X44	Y44	Z44	X45	Y45	Z45	

322	0.8916666666666667	0.2129154187504786	1.49314105632657	0.1205049427219152	0.1635716992126091	1.409548055260407	0.2482597858074846	0.3743931178458568	0.66704022623927	0.5360939826018366	0.3707260564402844	1.093378893606014	0.2898266969859092	0.1732678636106855	1.630974334411923	0.1316292208750672	0.4011606540747439	1.290331214468128	0.5549806504727677	0.2781982953120289	1.656311541802103	0.2131514985988694	0.09769626977108695	1.449914727967723	0.513141304083236	0.2506747386293987	1.348289082680199	0.5520764054052973	0.3393071145716244	0.7096812484324302	0.439611993862157	0.2624899676973672	1.121120146892985	0.6570747059189895	0.264565231541787	0.644399010914678	0.512899908547632	0.3663720978800062	1.211218786112557	0.5226412827432423	0.136842659685044	1.06836981919867	0.6148382862388511	0.4469457225073729	1.05919443964877	0.1050510941933749	0.3275614886647075	1.4708704200542	0.2644331000240906	0.3860829328043464	1.116947782176295	0.4677839119182672	0.3136513184080426	0.9771766602006209	0.6140091185202514	0.268946616543926	0.5854824640280079	0.6642700718898772	0.3626318830606149	1.381304653005679	0.4140136720199555	0.1663258931055091	1.390724243181811	0.4743910111891569	0.1331333441383556	1.344502237316575	0.5274197300667816	0.01688601455742297	0.05944868935020813	0.1455903965783352	0.1817994111400978	0.9888712603224602	0.1405650453312206	0.2366915710476365	1.316300471605693	0.007390820686403307	0.08049953698275548	1.631011761699079	0.2367223153011025	-0.1475693823328541	1.172472396472924	0.149319237753058	0.1802139922061062	1.657712112509473	0.3361652165644128	-0.04974714253944863	1.421858240746853	0.3412479861188349	-0.1070829918868989	1.29724408333407	0.2586349864252208	0.07958679293515639	0.07259471242993121	0.07901271227280718	0.04581505517942613	0.531489156061876	0.3198305153750177	0.1293910204615435	0.05826533048284723	0.1788309328602855	-0.08179479869561743	1.115908324973315	0.1785665328302024	0.1503608828459903	0.5036626803440393	0.3738291610111067	0.3592498903829043	1.02033371758179	0.04410868913977761	0.03694550936323726	1.460480179073385	0.08846389989375224	0.1254201405899072	0.7034917041734404	0.1933663712760588	0.02343917884986227	0.328597822892686	0.2134300704816818	0.06390030495138632	0.07100290980218182	0.3159814614444761	-0.05766112369142768	1.325834905557371	0.07897703769697385	-0.01152312668533382	1.359359275683764	0.3255627511576775	-0.08861120493935712	1.356669380818193	0.3446914509568444	0.1670378996746958	1.228152948484315	0.2454507286908144	0.3755215146369564	1.13795886273795	0.05228939002305661	
323	0.8944444444444445	0.2139970812848984	1.492148030478095	0.1203256261010765	0.164667191160697	1.408522150647688	0.2480791385643101	0.3758164070432369	0.6622859508699803	0.5380018779620371	0.3722661008918597	1.09203041363181	0.2897780762534279	0.1742722239412921	1.629951480217374	0.131472402429087	0.4020541503472528	1.289558136628617	0.5549641972358292	0.2791557331048589	1.65531898880333	0.213021443368226	0.09805990788609838	1.448503494743704	0.5137747563973828	0.2514497441754565	1.347185712551545	0.5524287469420479	0.3405837636114483	0.7043352822759786	0.4413064709251618	0.2637752719748012	1.11693123663294	0.6576272690687872	0.2659550675311061	0.6394971453776152	0.5151062322658018	0.3674096975300458	1.210377237854048	0.52259097168056	0.1382391453009837	1.064199804876893	0.6154007730399965	0.4485564149240784	1.058369982838441	0.1048851214018533	0.3285467758640309	1.470019358715331	0.2643443842254371	0.3874171182604526	1.114230042925919	0.468450042912959	0.3145000829003354	0.9728817902903805	0.614156128532786	0.2705752814441594	0.5815047347612724	0.6668265746069407	0.3634665208997466	1.380448445199956	0.4139424005488085	0.1668712312275293	1.389535325188635	0.4749591625604092	0.1338295675683708	1.343145948052216	0.5279266413223689	0.01708745024566348	0.05959399243837054	0.1456253659361525	0.1833226336166696	0.9880061938136352	0.1401967173135395	0.2380429429231965	1.315384185002199	0.007233847794211371	0.08145796199181422	1.629931370323252	0.2365323548840685	-0.146657636216862	1.171592039051624	0.1497995829921886	0.1811364796424334	1.656655271776444	0.3360086105198364	-0.04865342052366848	1.420741430525314	0.3420820538228027	-0.1060089762695608	1.296259164837351	0.2591938688373884	0.07990402163383323	0.0727128479804048	0.07914323867102696	0.04582327457854792	0.5315504023615689	0.3195616349252493	0.1295676520847149	0.05812449675934513	0.1789964426778981	-0.08089478543519273	1.114999156735265	0.1790095327946525	0.1501321146142499	0.5036172817767957	0.3740622785387969	0.3608873689583283	1.019555421921638	0.04384244870205516	0.03800792379244357	1.459285831921153	0.08830783592056086	0.126111373688956	0.7032328099387226	0.1930000525413612	0.02365207149645253	0.3285908349214689	0.2133456836621987	0.06376225653798148	0.07096096861899913	0.3160209573935435	-0.05662921745953876	1.3247160297603	0.07907895594180066	-0.01041150050267577	1.358232769400542	0.3263262081701394	-0.08755223388763306	1.355550145210127	0.3453361656559976	0.1683273011728368	1.227136170092158	0.2452474435205634	0.3771157739923339	1.137191244379355	0.05216097854509961	
324	0.8972222222222223	0.2150862586753924	1.491148994157	0.1201451452190303	0.1657695173226753	1.407489302158746	0.2478963727801884	0.3772772198569767	0.6574153506359958	0.5399787456091707	0.3738099425093359	1.090663976262325	0.2897180779976496	0.1752823928430478	1.628922429283128	0.1313160696101563	0.4029600880990056	1.288777161187926	0.5549478698661046	0.2801183754823372	1.654320888539021	0.2128930766873425	0.09841802769604441	1.447059556943139	0.5144589829773246	0.2522336507929543	1.346061086665708	0.5528031094318798	0.3419015309331971	0.6988616347843909	0.4430673757431597	0.2651239266933031	1.112648211733394	0.6581875428534182	0.2673833860458183	0.6344847803103433	0.5173838435604703	0.3684635820568752	1.209526885297957	0.5225414048300813	0.1396966783726728	1.059935893672221	0.6159869285676682	0.4501674821505032	1.05754274801477	0.1047039731732428	0.3295407101246151	1.469160767919275	0.2642559425689837	0.3887875776047996	1.111453312961406	0.4691152631792029	0.3153992716521243	0.9684868817822619	0.6143314704212632	0.272238366449007	0.577438699774901	0.6694568167443413	0.3643106789731705	1.379581237362021	0.4138757796828474	0.1674129771718465	1.388321793742489	0.4755631624510294	0.1345311526042463	1.341758819163062	0.5284689638582545	0.01729316928757982	0.05974201625399026	0.1456610475874559	0.1848434468192366	0.9871385093860168	0.1398230186701455	0.2393941669777249	1.314460173730609	0.007068051345803863	0.08242156037081889	1.628843179465904	0.236342533484094	-0.1457407720460123	1.170701503903013	0.1502651757122783	0.1820634402024206	1.655591341956219	0.3358528071653744	-0.04757054501298803	1.419589841564814	0.3429410157960145	-0.1049364291714843	1.295251101634191	0.2597554547888464	0.08022826696499176	0.07283541821106891	0.07927799728373448	0.04583130110478512	0.5316180466158625	0.3192746114639953	0.1297470812867272	0.05798307651001588	0.1791657135321079	-0.07998941382764226	1.114078165409116	0.1794331887139032	0.1499120890895061	0.5035871598887213	0.3742718806552128	0.3625215638991293	1.018774044355785	0.04356234522125935	0.03907751910750531	1.458083050475658	0.08814635604110742	0.1268083141460346	0.7029766414561626	0.1926166854304711	0.02386916599658413	0.3285867893980766	0.2132529541515067	0.06362467947496291	0.07092088034525594	0.3160626196766964	-0.0555872514499038	1.323586014097666	0.07917093144590065	-0.009308756947864335	1.357075799100956	0.3271038605765363	-0.08650032734828637	1.354395033843733	0.345995452938451	0.1696235046296691	1.226113380243343	0.2450395263128753	0.3787104248658323	1.136417919310825	0.05202203716026412	
325	0.9	0.2161833913780774	1.490144563176871	0.1199635899423328	0.1668787772750762	1.406449997238148	0.2477113072811701	0.3787756782253223	0.6524283542792974	0.5420229052959413	0.3753578078325717	1.089280283123528	0.2896468370657826	0.1762985673180106	1.627887939303601	0.1311604748052068	0.4038779747221873	1.287988191502932	0.5549318920782776	0.2810862149715868	1.653318056978228	0.2127669857515413	0.09877025742438446	1.445582495105914	0.5151948486600404	0.253025946553159	1.344915060443064	0.5531997326404543	0.3432578105395708	0.6932606584430168	0.4448944311591161	0.2665371434726275	1.108271483967628	0.6587538258729038	0.2688495041650195	0.6293624101029229	0.5197342326482443	0.3695331814403601	1.20866776752496	0.5224927718418881	0.1412162942006231	1.055578586605483	0.6165958853919231	0.4517787369194955	1.056712745424293	0.1045077978409513	0.3305433538830226	1.468294974819851	0.2641681638991274	0.3901954999903578	1.108618102211729	0.4697783485413911	0.3163520521056856	0.9639914891512876	0.6145360000563821	0.2739393664395907	0.5732844546316708	0.6721616902192443	0.365164286000594	1.378703006070993	0.4138142935354793	0.1679505525963192	1.387083051857212	0.4762035576990498	0.1352376830719776	1.340340338056945	0.5290473989902442	0.01750328117468712	0.05989293632795965	0.1456976790044242	0.1863624736914528	0.9862684941822341	0.1394441572968468	0.2407453319615726	1.313528756017622	0.006893285920894352	0.08339038497879771	1.627747332465199	0.2361528989541063	-0.144818711551754	1.169800916737899	0.1507158066949181	0.1829945457122995	1.654520451148503	0.3356981750405994	-0.04649908260750359	1.418402821118418	0.3438259422413195	-0.1038656468700225	1.294219772255804	0.2603197324790746	0.08055935342743539	0.07296250827245297	0.07941714617847004	0.0458395713756811	0.5316925514212527	0.3189721948776936	0.1299292823752512	0.05784129400499865	0.1793387484562739	-0.07907867112208605	1.113145381040797	0.1798369230525222	0.1497017203965532	0.5035732049930276	0.3744593309096937	0.364152102586672	1.017990249095524	0.04326849443251869	0.04015427521476207	1.456872322091993	0.08797950104075218	0.1275112342680166	0.7027228789988297	0.1922175474369696	0.02409095615722391	0.3285866610379115	0.2131522715666315	0.06348779357953106	0.07088247768456025	0.3161068819320215	-0.05453521081959842	1.322445033614538	0.07925240463324867	-0.0082156083495298	1.355887856373364	0.3278959773510312	-0.08545614365291526	1.353203781450551	0.346669477931383	0.1709264240381303	1.225084692812727	0.2448268934726343	0.380305024817907	1.135638775984602	0.05187290022098259	
